<mxfile host="app.diagrams.net" modified="2023-09-26T17:04:23.921Z" agent="Mozilla/5.0 (Windows NT 10.0; Win64; x64) AppleWebKit/537.36 (KHTML, like Gecko) Chrome/114.0.0.0 YaBrowser/23.7.5.739 Yowser/2.5 Safari/537.36" etag="GTK7zD8bHRW6jlcA46ia" version="21.8.2" type="google">
  <diagram name="Страница — 1" id="yOlRsWtxwd_PW9bbzS2Y">
    <mxGraphModel grid="1" page="1" gridSize="10" guides="1" tooltips="1" connect="1" arrows="1" fold="1" pageScale="1" pageWidth="827" pageHeight="1169" math="0" shadow="0">
      <root>
        <mxCell id="0" />
        <mxCell id="1" parent="0" />
        <mxCell id="1wQZeJFw0YvJI_6gX8pK-1" value="Patient" style="shape=umlActor;verticalLabelPosition=bottom;verticalAlign=top;html=1;" vertex="1" parent="1">
          <mxGeometry x="250" y="265" width="30" height="65" as="geometry" />
        </mxCell>
        <mxCell id="1wQZeJFw0YvJI_6gX8pK-4" value="" style="html=1;whiteSpace=wrap;" vertex="1" parent="1">
          <mxGeometry x="350" y="190" width="400" height="470" as="geometry" />
        </mxCell>
        <mxCell id="1wQZeJFw0YvJI_6gX8pK-6" value="Admin" style="shape=umlActor;verticalLabelPosition=bottom;verticalAlign=top;html=1;" vertex="1" parent="1">
          <mxGeometry x="827" y="280" width="30" height="60" as="geometry" />
        </mxCell>
        <mxCell id="1wQZeJFw0YvJI_6gX8pK-7" value="Patient registration" style="ellipse;whiteSpace=wrap;html=1;" vertex="1" parent="1">
          <mxGeometry x="400" y="280" width="70" height="50" as="geometry" />
        </mxCell>
        <mxCell id="1wQZeJFw0YvJI_6gX8pK-8" value="Register" style="ellipse;whiteSpace=wrap;html=1;" vertex="1" parent="1">
          <mxGeometry x="390" y="530" width="70" height="30" as="geometry" />
        </mxCell>
        <mxCell id="1wQZeJFw0YvJI_6gX8pK-9" value="Username and password details" style="ellipse;whiteSpace=wrap;html=1;" vertex="1" parent="1">
          <mxGeometry x="520" y="480" width="110" height="40" as="geometry" />
        </mxCell>
        <mxCell id="1wQZeJFw0YvJI_6gX8pK-10" value="Details validation" style="ellipse;whiteSpace=wrap;html=1;" vertex="1" parent="1">
          <mxGeometry x="495" y="560" width="110" height="40" as="geometry" />
        </mxCell>
        <mxCell id="1wQZeJFw0YvJI_6gX8pK-11" value="System accesed" style="ellipse;whiteSpace=wrap;html=1;" vertex="1" parent="1">
          <mxGeometry x="400" y="610" width="110" height="40" as="geometry" />
        </mxCell>
        <mxCell id="1wQZeJFw0YvJI_6gX8pK-16" value="" style="endArrow=open;endFill=1;endSize=12;html=1;rounded=0;entryX=0;entryY=0.5;entryDx=0;entryDy=0;" edge="1" parent="1" source="1wQZeJFw0YvJI_6gX8pK-1" target="1wQZeJFw0YvJI_6gX8pK-7">
          <mxGeometry width="160" relative="1" as="geometry">
            <mxPoint x="430" y="550" as="sourcePoint" />
            <mxPoint x="590" y="550" as="targetPoint" />
          </mxGeometry>
        </mxCell>
        <mxCell id="1wQZeJFw0YvJI_6gX8pK-18" value="" style="endArrow=block;dashed=1;endFill=0;endSize=12;html=1;rounded=0;exitX=1;exitY=0.5;exitDx=0;exitDy=0;entryX=0.003;entryY=0.604;entryDx=0;entryDy=0;entryPerimeter=0;" edge="1" parent="1" source="1wQZeJFw0YvJI_6gX8pK-8" target="1wQZeJFw0YvJI_6gX8pK-9">
          <mxGeometry width="160" relative="1" as="geometry">
            <mxPoint x="380" y="550" as="sourcePoint" />
            <mxPoint x="540" y="550" as="targetPoint" />
          </mxGeometry>
        </mxCell>
        <mxCell id="1wQZeJFw0YvJI_6gX8pK-19" value="&amp;lt;&amp;lt;include&amp;gt;&amp;gt;" style="edgeLabel;html=1;align=center;verticalAlign=middle;resizable=0;points=[];" connectable="0" vertex="1" parent="1wQZeJFw0YvJI_6gX8pK-18">
          <mxGeometry x="-0.3145" y="2" relative="1" as="geometry">
            <mxPoint as="offset" />
          </mxGeometry>
        </mxCell>
        <mxCell id="1wQZeJFw0YvJI_6gX8pK-20" value="" style="endArrow=block;dashed=1;endFill=0;endSize=12;html=1;rounded=0;exitX=0.5;exitY=1;exitDx=0;exitDy=0;" edge="1" parent="1" source="1wQZeJFw0YvJI_6gX8pK-9">
          <mxGeometry width="160" relative="1" as="geometry">
            <mxPoint x="470" y="555" as="sourcePoint" />
            <mxPoint x="550" y="560" as="targetPoint" />
          </mxGeometry>
        </mxCell>
        <mxCell id="1wQZeJFw0YvJI_6gX8pK-21" value="&amp;lt;&amp;lt;include&amp;gt;&amp;gt;" style="edgeLabel;html=1;align=center;verticalAlign=middle;resizable=0;points=[];" connectable="0" vertex="1" parent="1wQZeJFw0YvJI_6gX8pK-20">
          <mxGeometry x="-0.3145" y="2" relative="1" as="geometry">
            <mxPoint as="offset" />
          </mxGeometry>
        </mxCell>
        <mxCell id="1wQZeJFw0YvJI_6gX8pK-22" value="" style="endArrow=block;dashed=1;endFill=0;endSize=12;html=1;rounded=0;exitX=0.5;exitY=1;exitDx=0;exitDy=0;entryX=1;entryY=0.5;entryDx=0;entryDy=0;" edge="1" parent="1" source="1wQZeJFw0YvJI_6gX8pK-10" target="1wQZeJFw0YvJI_6gX8pK-11">
          <mxGeometry width="160" relative="1" as="geometry">
            <mxPoint x="585" y="530" as="sourcePoint" />
            <mxPoint x="560" y="570" as="targetPoint" />
          </mxGeometry>
        </mxCell>
        <mxCell id="1wQZeJFw0YvJI_6gX8pK-23" value="&amp;lt;&amp;lt;include&amp;gt;&amp;gt;" style="edgeLabel;html=1;align=center;verticalAlign=middle;resizable=0;points=[];" connectable="0" vertex="1" parent="1wQZeJFw0YvJI_6gX8pK-22">
          <mxGeometry x="-0.3145" y="2" relative="1" as="geometry">
            <mxPoint as="offset" />
          </mxGeometry>
        </mxCell>
        <mxCell id="1wQZeJFw0YvJI_6gX8pK-24" value="Docrtor registration" style="ellipse;whiteSpace=wrap;html=1;" vertex="1" parent="1">
          <mxGeometry x="650" y="275" width="70" height="50" as="geometry" />
        </mxCell>
        <mxCell id="1wQZeJFw0YvJI_6gX8pK-25" value="Username and password details" style="ellipse;whiteSpace=wrap;html=1;" vertex="1" parent="1">
          <mxGeometry x="385" y="360" width="110" height="40" as="geometry" />
        </mxCell>
        <mxCell id="1wQZeJFw0YvJI_6gX8pK-26" value="Information validation" style="ellipse;whiteSpace=wrap;html=1;" vertex="1" parent="1">
          <mxGeometry x="510" y="320" width="110" height="40" as="geometry" />
        </mxCell>
        <mxCell id="1wQZeJFw0YvJI_6gX8pK-27" value="Username and password details" style="ellipse;whiteSpace=wrap;html=1;" vertex="1" parent="1">
          <mxGeometry x="620" y="380" width="110" height="40" as="geometry" />
        </mxCell>
        <mxCell id="1wQZeJFw0YvJI_6gX8pK-28" value="" style="endArrow=open;endFill=1;endSize=12;html=1;rounded=0;entryX=0;entryY=0.5;entryDx=0;entryDy=0;" edge="1" parent="1" target="1wQZeJFw0YvJI_6gX8pK-8">
          <mxGeometry width="160" relative="1" as="geometry">
            <mxPoint x="280" y="300" as="sourcePoint" />
            <mxPoint x="400" y="555" as="targetPoint" />
          </mxGeometry>
        </mxCell>
        <mxCell id="1wQZeJFw0YvJI_6gX8pK-29" value="" style="endArrow=open;endFill=1;endSize=12;html=1;rounded=0;entryX=1;entryY=0.5;entryDx=0;entryDy=0;" edge="1" parent="1" source="1wQZeJFw0YvJI_6gX8pK-6" target="1wQZeJFw0YvJI_6gX8pK-24">
          <mxGeometry width="160" relative="1" as="geometry">
            <mxPoint x="290" y="306" as="sourcePoint" />
            <mxPoint x="410" y="315" as="targetPoint" />
          </mxGeometry>
        </mxCell>
        <mxCell id="1wQZeJFw0YvJI_6gX8pK-30" value="Saves basic information" style="ellipse;whiteSpace=wrap;html=1;" vertex="1" parent="1">
          <mxGeometry x="450" y="210" width="110" height="40" as="geometry" />
        </mxCell>
        <mxCell id="1wQZeJFw0YvJI_6gX8pK-31" value="" style="endArrow=block;dashed=1;endFill=0;endSize=12;html=1;rounded=0;exitX=0.5;exitY=0;exitDx=0;exitDy=0;entryX=0.5;entryY=1;entryDx=0;entryDy=0;" edge="1" parent="1" source="1wQZeJFw0YvJI_6gX8pK-7" target="1wQZeJFw0YvJI_6gX8pK-30">
          <mxGeometry width="160" relative="1" as="geometry">
            <mxPoint x="470" y="555" as="sourcePoint" />
            <mxPoint x="530" y="514" as="targetPoint" />
          </mxGeometry>
        </mxCell>
        <mxCell id="1wQZeJFw0YvJI_6gX8pK-32" value="&amp;lt;&amp;lt;include&amp;gt;&amp;gt;" style="edgeLabel;html=1;align=center;verticalAlign=middle;resizable=0;points=[];" connectable="0" vertex="1" parent="1wQZeJFw0YvJI_6gX8pK-31">
          <mxGeometry x="-0.3145" y="2" relative="1" as="geometry">
            <mxPoint as="offset" />
          </mxGeometry>
        </mxCell>
        <mxCell id="1wQZeJFw0YvJI_6gX8pK-33" value="" style="endArrow=block;dashed=1;endFill=0;endSize=12;html=1;rounded=0;exitX=0.5;exitY=1;exitDx=0;exitDy=0;entryX=0.5;entryY=0;entryDx=0;entryDy=0;" edge="1" parent="1" source="1wQZeJFw0YvJI_6gX8pK-7" target="1wQZeJFw0YvJI_6gX8pK-25">
          <mxGeometry width="160" relative="1" as="geometry">
            <mxPoint x="445" y="290" as="sourcePoint" />
            <mxPoint x="515" y="260" as="targetPoint" />
          </mxGeometry>
        </mxCell>
        <mxCell id="1wQZeJFw0YvJI_6gX8pK-34" value="&amp;lt;&amp;lt;include&amp;gt;&amp;gt;" style="edgeLabel;html=1;align=center;verticalAlign=middle;resizable=0;points=[];" connectable="0" vertex="1" parent="1wQZeJFw0YvJI_6gX8pK-33">
          <mxGeometry x="-0.3145" y="2" relative="1" as="geometry">
            <mxPoint as="offset" />
          </mxGeometry>
        </mxCell>
        <mxCell id="1wQZeJFw0YvJI_6gX8pK-35" value="" style="endArrow=block;dashed=1;endFill=0;endSize=12;html=1;rounded=0;exitX=0;exitY=0.5;exitDx=0;exitDy=0;entryX=1;entryY=0.5;entryDx=0;entryDy=0;" edge="1" parent="1" source="1wQZeJFw0YvJI_6gX8pK-24" target="1wQZeJFw0YvJI_6gX8pK-26">
          <mxGeometry width="160" relative="1" as="geometry">
            <mxPoint x="445" y="290" as="sourcePoint" />
            <mxPoint x="515" y="260" as="targetPoint" />
          </mxGeometry>
        </mxCell>
        <mxCell id="1wQZeJFw0YvJI_6gX8pK-36" value="&amp;lt;&amp;lt;include&amp;gt;&amp;gt;" style="edgeLabel;html=1;align=center;verticalAlign=middle;resizable=0;points=[];" connectable="0" vertex="1" parent="1wQZeJFw0YvJI_6gX8pK-35">
          <mxGeometry x="-0.3145" y="2" relative="1" as="geometry">
            <mxPoint as="offset" />
          </mxGeometry>
        </mxCell>
        <mxCell id="1wQZeJFw0YvJI_6gX8pK-37" value="" style="endArrow=block;dashed=1;endFill=0;endSize=12;html=1;rounded=0;exitX=0.5;exitY=1;exitDx=0;exitDy=0;entryX=0.5;entryY=0;entryDx=0;entryDy=0;" edge="1" parent="1" source="1wQZeJFw0YvJI_6gX8pK-24" target="1wQZeJFw0YvJI_6gX8pK-27">
          <mxGeometry width="160" relative="1" as="geometry">
            <mxPoint x="455" y="300" as="sourcePoint" />
            <mxPoint x="525" y="270" as="targetPoint" />
          </mxGeometry>
        </mxCell>
        <mxCell id="1wQZeJFw0YvJI_6gX8pK-38" value="&amp;lt;&amp;lt;include&amp;gt;&amp;gt;" style="edgeLabel;html=1;align=center;verticalAlign=middle;resizable=0;points=[];" connectable="0" vertex="1" parent="1wQZeJFw0YvJI_6gX8pK-37">
          <mxGeometry x="-0.3145" y="2" relative="1" as="geometry">
            <mxPoint as="offset" />
          </mxGeometry>
        </mxCell>
        <mxCell id="bODs5jWYiVKXIwsu2zOU-1" value="Saves information about doctor" style="ellipse;whiteSpace=wrap;html=1;" vertex="1" parent="1">
          <mxGeometry x="570" y="210" width="110" height="40" as="geometry" />
        </mxCell>
        <mxCell id="bODs5jWYiVKXIwsu2zOU-2" value="" style="endArrow=block;dashed=1;endFill=0;endSize=12;html=1;rounded=0;exitX=0.5;exitY=0;exitDx=0;exitDy=0;entryX=0.5;entryY=1;entryDx=0;entryDy=0;" edge="1" parent="1" source="1wQZeJFw0YvJI_6gX8pK-24" target="bODs5jWYiVKXIwsu2zOU-1">
          <mxGeometry width="160" relative="1" as="geometry">
            <mxPoint x="660" y="310" as="sourcePoint" />
            <mxPoint x="630" y="350" as="targetPoint" />
          </mxGeometry>
        </mxCell>
        <mxCell id="bODs5jWYiVKXIwsu2zOU-3" value="&amp;lt;&amp;lt;include&amp;gt;&amp;gt;" style="edgeLabel;html=1;align=center;verticalAlign=middle;resizable=0;points=[];" connectable="0" vertex="1" parent="bODs5jWYiVKXIwsu2zOU-2">
          <mxGeometry x="-0.3145" y="2" relative="1" as="geometry">
            <mxPoint as="offset" />
          </mxGeometry>
        </mxCell>
      </root>
    </mxGraphModel>
  </diagram>
</mxfile>
